<svg height="82" viewBox="0 0 356 82" width="356" xmlns="http://www.w3.org/2000/svg" xmlns:xlink="http://www.w3.org/1999/xlink"><linearGradient id="a" x1="100%" x2="35.182%" y1="89.778664%" y2="17.805657%"><stop offset="0" stop-color="#ff16b8"/><stop offset="1" stop-color="#ff16b8"/></linearGradient><linearGradient id="b" x1="-.29455%" x2="100.29455%" y1="0%" y2="100%"><stop offset="0" stop-color="#ff16b8"/><stop offset="1" stop-color="#ff16b8" stop-opacity=".461"/></linearGradient><g fill="none" fill-rule="evenodd"><rect fill="#451771" height="82" rx="8" width="356"/><g fill-rule="nonzero" transform="translate(30 20)"><path d="m35.0058445.24545337h-7.3071195v20.76733023c0 7.3588888-6.0807675 13.3326634-13.5714574 13.3326634-7.0202908 0-12.78809645-5.2304968-13.49242017-11.9475492.83499011 10.5630612 9.83886047 18.8699893 20.80017707 18.8699893 11.5356113 0 20.878587-9.1785732 20.878587-20.5112119v-13.33203728c.0032115-1.90500397-.7656761-3.73289456-2.1368454-5.07993765-1.3711692-1.34704308-3.2317982-2.10240187-5.1709216-2.0992469z" fill="url(#a)"/><path d="m27.698725 20.859369v.4101491c0 .0513469 0 .1026938-.0261332.1540407 0 .0507208 0 .1020677-.0261333.1534146 0 .0513469-.0261333.1026938-.0261333.1540407s-.0254959.1026938-.0254959.1540407c0 .0507208-.0267706.1020677-.0267706.1534146s-.0254959.1026938-.0254959.1540407-.0267707.1026938-.0267707.1540407c-.0254959.051347-.0254959.1020677-.0522665.1534146-.025496.0513469-.025496.1026938-.0522666.1540407-.0254959.0513469-.0254959.1026938-.0516292.1540408-.0261332.0513469-.0261332.1020676-.0522665.127741-.0261333.051347-.0261333.1026939-.0522665.1540408-.0261334.0513469-.0261334.1026938-.0522666.1283672-.0242404.0395719-.0418852.0826965-.0522666.1277411-.0261332.0513469-.0522666.0770204-.0522666.1283673-.0254958.0513469-.0522665.1026938-.0783998.1283673-.0254958.0513469-.0522665.0770204-.0783998.1283673-.0254959.0513469-.0516292.0763941-.0777624.1277411-.0261334.0513469-.0522666.0770203-.0783999.1283672s-.0522665.0770204-.0783998.1283673-.0522665.0770204-.0783999.1283673c-.0254958.0507207-.0522665.0763942-.0783998.1277411-.0254959.0513469-.0522665.0770203-.0783998.1283672-.0254959.051347-.0516292.0770204-.1038958.1283673-.0261332.0250473-.0522665.0770204-.104533.1026938-.0261333.0507208-.0783999.0763942-.1045332.1020677-.0254958.0256734-.0522665.0770203-.104533.1026938l-.1038958.1026938-.1045331.1026938-.1045331.1020677-.1045331.1026938-.1045331.1026938c-.0254959.0250473-.0777625.0513469-.1038958.1026938-.0522665.0250473-.0783998.0513469-.1306664.1026939-.0261332.0250472-.0783998.0507207-.104533.0763941-.0522666.0256735-.0783999.0513469-.1306664.0770204-.0254959.0256735-.0777625.0513469-.1038958.0770204-.0522665.0256734-.0783998.0513469-.1306664.0770203-.0522665.0250473-.0783998.0513469-.1306664.0770204-.0522665.0250473-.0783998.0513469-.1306663.0770204-.0516292.0250472-.0777625.0507207-.130029.0763941-.0522666.0256735-.1045331.051347-.1306664.0770204-.0522665.0256735-.0783999.0513469-.1306664.0513469l-.1561623.0770204c-.0522665.0250473-.0783998.0513469-.1306664.0513469-.0476709.0284821-.1012676.0460332-.1567996.0513469-.0522666.0250473-.0783998.0250473-.1306664.0513469-.0516292.0250473-.1038957.0250473-.1561623.0507207-.0522665.0256735-.0783998.0256735-.1306664.0513469-.0522665.0256735-.1045331.0256735-.1567997.051347-.0516291.0256734-.1038957.0256734-.1300289.0513469-.0522666.0256734-.1045331.0256734-.1567997.0256734s-.0783998.0256735-.1306664.0256735-.130029.0256734-.1822955.0256734c-.0522666 0-.0783999.0250473-.1306664.0250473-.0522666 0-.1306664.0262996-.182933.0262996-.0522665 0-.0783998 0-.130029.0250473-.0783998 0-.1567996 0-.2090662.0262997h-.417495c-1.6624826.0040034-3.2580482-.643023-4.4336045-1.7978951-1.1755563-1.1548719-1.8341712-2.722363-1.8300961-4.3555938v-13.35771068c-.0516291-3.97437606-3.3144645-7.17917464-7.359386-7.17917464h-7.3077569v20.58823232c0 .5385163.02549589 1.0513592.07839983 1.5642022.70432372 6.7170524 6.47212937 11.9475492 13.49242017 11.9475492 7.4906899 0 13.5714574-5.9737746 13.5714574-13.3326634z" fill="url(#b)"/><g fill="#fff"><path d="m70.0096329 30.260976c-2.3694838 0-4.2062655-.6704253-5.5104-2.011296-1.3041346-1.3408707-1.9561921-3.1501006-1.9561921-5.4277441v-12.2055361h3.0582721v12.1779841c0 1.4327112.3811322 2.5623319 1.143408 3.3888961.7622758.8265641 1.8505689 1.23984 3.264912 1.23984 1.395975 0 2.4796762-.4178678 3.2511361-1.253616.7714598-.8357482 1.157184-1.9699609 1.157184-3.4026721v-12.1504321h3.03072v12.1779841c0 2.2225392-.6658333 4.0225852-1.99752 5.4001921s-3.1455086 2.0664-5.4415201 2.0664zm11.3697922-.358176v-19.92009623h3.003168v19.92009623zm6.93392-14.3821442v-3.003168h2.9756161v3.003168h2.920512v2.4796801h-2.920512v6.6951361c0 1.0653493.1928621 1.7862861.578592 2.162832s1.0102357.564816 1.873536.564816l.578592-.027552v2.589888c-.3489937.0734724-.8357409.110208-1.460256.110208-1.6531283 0-2.8240766-.5051149-3.51288-1.51536-.6888035-1.010245-1.0332001-2.4613026-1.0332001-4.353216v-6.2267521h-1.598016v-2.4796801zm8.7248001 14.3821442v-14.3821442h3.0031678v14.3821442zm.13776-16.5863042c-.3489937-.3673618-.523488-.8173733-.523488-1.350048s.1790862-.9780942.537264-1.336272.8035974-.537264 1.3362721-.537264c.5326746 0 .9780942.1790862 1.336272.537264.3581777.3581778.5372637.8035973.5372637 1.336272s-.179086.9780942-.5372637 1.336272c-.3581778.3581778-.8035974.537264-1.336272.537264-.5326747 0-.9826862-.1744942-1.3500481-.523488zm26.8540168 7.1910721v9.3952321h-2.975616v-8.6237761c0-2.2776434-.918391-3.416448-2.7552-3.416448-.863301 0-1.56587.3030689-2.107729.909216-.541858.606147-.812784 1.4510666-.812784 2.534784v8.5962241h-3.003168v-8.8992961c0-.9735089-.243373-1.7403652-.730128-2.300592-.486754-.5602268-1.161771-.840336-2.025072-.840336-.826564 0-1.515357.3122529-2.0664.936768-.551042.6245151-.82656 1.441883-.82656 2.452128v8.6513281h-3.003168v-14.3821442h2.948064v1.8735361c.29389-.6061471.785229-1.1296298 1.474032-1.5704641.688804-.4408342 1.492396-.661248 2.4108-.661248 2.002122 0 3.379709.7990001 4.1328 2.3970241.900037-1.598024 2.378646-2.3970241 4.435873-2.3970241 1.579655 0 2.791931.4867472 3.636864 1.4602561.844932.9735088 1.267392 2.2684399 1.267392 3.884832zm2.690912 4.9593601c0-1.395975.514298-2.5347796 1.542912-3.4164481 1.028613-.8816684 2.369463-1.322496 4.022592-1.322496 1.524551 0 2.67254.3489885 3.444 1.046976v-1.350048c0-.8265641-.270926-1.4740297-.812784-1.942416-.541859-.4683864-1.290348-.702576-2.245488-.702576-1.322503 0-2.663354.3765402-4.022592 1.129632l-1.157184-2.093952c1.708232-1.1020856 3.53583-1.6531201 5.482848-1.6531201 3.820563 0 5.730816 1.8184139 5.730816 5.4552961v9.2850241h-2.61744l-.247968-1.074528c-.863301.9551408-2.093944 1.432704-3.691968 1.432704-1.54292 0-2.833259-.4454195-3.871056-1.336272-1.037798-.8908524-1.556688-2.0434329-1.556688-3.457776zm3.829728-1.845984c-.551043.4592023-.82656 1.0469724-.82656 1.763328s.284701 1.3087177.854112 1.777104 1.304123.702576 2.20416.702576c.881668 0 1.607197-.2295977 2.176608-.6888s.854112-1.0561563.854112-1.79088c0-.7530918-.280109-1.3546378-.840336-1.804656-.560227-.4500183-1.299532-.6750241-2.217936-.6750241-.900037 0-1.634749.2387817-2.20416.7163521zm11.89328-8.1002882v-3.003168h2.975616v3.003168h2.920512v2.4796801h-2.920512v6.6951361c0 1.0653493.192862 1.7862861.578592 2.162832s1.010236.564816 1.873536.564816l.578592-.027552v2.589888c-.348994.0734724-.835741.110208-1.460256.110208-1.653128 0-2.824077-.5051149-3.51288-1.51536-.688804-1.010245-1.0332-2.4613026-1.0332-4.353216v-6.2267521h-1.598016v-2.4796801zm9.937088 12.6463682c-1.377607-1.395975-2.0664-3.196021-2.0664-5.4001921 0-2.204171.670425-4.0225848 2.011296-5.455296s3.003158-2.1490561 4.986912-2.1490561c2.149067 0 3.838906.6842012 5.069568 2.0526241 1.230662 1.3684228 1.845984 3.1914286 1.845984 5.469072 0 .3306257-.009184.5785912-.027552.743904h-10.827936c.018368 1.2673984.44542 2.2868122 1.281168 3.0582721s1.89649 1.157184 3.182256 1.157184c1.726601 0 3.049083-.6704253 3.967488-2.011296l1.983744 1.487808c-.459202.789828-1.193915 1.5107648-2.20416 2.162832-1.010245.6520673-2.277624.978096-3.802176.978096-2.222539 0-4.022585-.697977-5.400192-2.093952zm1.10208-6.8053441h7.687008c-.055104-1.1571898-.440828-2.0618047-1.157184-2.713872s-1.607195-.978096-2.672544-.978096c-1.046981 0-1.928636.3352126-2.644992 1.005648-.716356.6704353-1.120448 1.5658664-1.212288 2.68632zm35.08288 4.2154561.909216 2.672544c-1.744968 1.3408707-3.765428 2.011296-6.06144 2.011296-2.902158 0-5.280791-.9505345-7.135968-2.851632s-2.782752-4.2843217-2.782752-7.1497441c0-2.8470543.941351-5.2256865 2.82408-7.1359681 1.88273-1.9102816 4.238402-2.865408 7.067088-2.865408 2.240908 0 4.187896.6245057 5.841024 1.873536l-.909216 2.700096c-1.487815-1.1388217-3.104183-1.708224-4.849152-1.708224-1.983754 0-3.613897.6842012-4.89048 2.052624-1.276582 1.3684229-1.914864 3.062854-1.914864 5.0833441 0 2.0388582.629098 3.7378813 1.887312 5.0971201 1.258215 1.3592388 2.906726 2.038848 4.945584 2.038848 1.763337 0 3.453176-.6061379 5.069568-1.818432zm7.20944-6.3369601c-.844932.9184046-1.267392 2.0847609-1.267392 3.499104s.427052 2.5761075 1.281168 3.4853281c.854117.9092205 1.951594 1.363824 3.292464 1.363824 1.340871 0 2.447532-.4591954 3.320017-1.3776.872484-.9184046 1.30872-2.084761 1.30872-3.4991041s-.436236-2.5806994-1.30872-3.499104c-.872485-.9184046-1.979146-1.3776-3.320017-1.3776-1.34087 0-2.442939.4683793-3.30624 1.405152zm-4.298112 3.499104c0-2.1674348.725529-3.9720728 2.176608-5.413968 1.45108-1.4418953 3.26031-2.1628321 5.427744-2.1628321 2.204172 0 4.027177.7163449 5.469073 2.1490561 1.441895 1.4327112 2.162832 3.2327572 2.162832 5.400192 0 2.1674349-.725529 3.9674809-2.176608 5.4001921-1.45108 1.4327112-3.269494 2.149056-5.455297 2.149056-2.204171 0-4.022584-.7071609-5.455296-2.121504-1.432711-1.4143431-2.149056-3.2143891-2.149056-5.4001921zm22.941633 7.5216961c-1.726601 0-2.99398-.5785862-3.802176-1.735776s-1.212288-2.6082473-1.212288-4.353216v-8.6513282h2.975616v8.8992962c0 .9735088.270925 1.7403652.812784 2.300592.541858.5602268 1.235243.840336 2.080176.840336.936772 0 1.694445-.3122529 2.27304-.936768s.867888-1.4326991.867888-2.424576v-8.6788802h3.003168v14.3821442h-2.948064v-1.873536c-.348994.6245151-.881661 1.1525899-1.598016 1.58424-.716356.4316502-1.533724.647472-2.452128.647472zm17.624096-15.0984962v3.0307201c-2.70011 0-4.050144 1.8367816-4.050144 5.5104001v6.1992h-3.003168v-14.3821442h2.948064v2.2592641c.293889-.7530918.808188-1.3775976 1.542912-1.8735361.734724-.4959384 1.588827-.743904 2.562336-.743904zm1.533728 12.2330882 1.873536-1.487808c.8633 1.2490302 2.011289 1.873536 3.444 1.873536.661251 0 1.193918-.1561264 1.598016-.468384s.606144-.7530852.606144-1.322496c0-.4959385-.238782-.9183983-.716352-1.267392-.409346-.2991375-.896282-.5611607-1.460817-.7860752l-.288735-.1093648c-.688804-.2479693-1.377597-.5280785-2.0664-.8403361-.688804-.3122575-1.271982-.7852288-1.749552-1.418928-.477571-.6336992-.716352-1.4097394-.716352-2.328144 0-1.2490303.463787-2.2408924 1.391376-2.975616.927589-.7347237 2.107721-1.1020801 3.540432-1.1020801 1.212294 0 2.208748.2709253 2.989392.812784.780644.5418588 1.345454 1.1617726 1.694448 1.8597601l-2.0664 1.3776c-.661251-1.0653493-1.588826-1.598016-2.782752-1.598016-.569411 0-1.033198.1423506-1.391376.427056s-.537264.6658376-.537264 1.143408c0 .4959385.243373.9092144.730128 1.23984.486754.3306257 1.069933.6153268 1.749552.854112s1.363821.5097105 2.052624.812784c.688803.3030736 1.276574.7714529 1.763328 1.4051521.486754.6336991.730128 1.4189233.730128 2.355696 0 1.3225026-.491339 2.387836-1.474032 3.196032-.982693.8081961-2.227113 1.212288-3.733296 1.212288-2.387852 0-4.114427-.9551264-5.179776-2.865408zm14.290304.771456c-1.377607-1.395975-2.0664-3.196021-2.0664-5.4001921 0-2.204171.670425-4.0225848 2.011296-5.455296s3.003158-2.1490561 4.986912-2.1490561c2.149067 0 3.838906.6842012 5.069568 2.0526241 1.230662 1.3684228 1.845984 3.1914286 1.845984 5.469072 0 .3306257-.009184.5785912-.027552.743904h-10.827936c.018368 1.2673984.44542 2.2868122 1.281168 3.0582721s1.89649 1.157184 3.182256 1.157184c1.726601 0 3.049084-.6704253 3.967488-2.011296l1.983744 1.487808c-.459202.789828-1.193915 1.5107648-2.20416 2.162832-1.010245.6520673-2.277624.978096-3.802176.978096-2.222539 0-4.022585-.697977-5.400192-2.093952zm1.10208-6.8053441h7.687008c-.055104-1.1571898-.440828-2.0618047-1.157184-2.713872-.716355-.6520673-1.607195-.978096-2.672544-.978096-1.046981 0-1.928636.3352126-2.644992 1.005648-.716356.6704353-1.120447 1.5658664-1.212288 2.68632zm12.471872 6.0338881 1.873536-1.487808c.863301 1.2490302 2.011289 1.873536 3.444 1.873536.661252 0 1.193918-.1561264 1.598016-.468384s.606144-.7530852.606144-1.322496c0-.4959385-.238781-.9183983-.716352-1.267392-.409346-.2991375-.896281-.5611607-1.460817-.7860752l-.288735-.1093648c-.688803-.2479693-1.377596-.5280785-2.0664-.8403361-.688803-.3122575-1.271981-.7852288-1.749552-1.418928-.47757-.6336992-.716352-1.4097394-.716352-2.328144 0-1.2490303.463788-2.2408924 1.391376-2.975616.927589-.7347237 2.107721-1.1020801 3.540432-1.1020801 1.212294 0 2.208748.2709253 2.989392.812784.780644.5418588 1.345455 1.1617726 1.694448 1.8597601l-2.0664 1.3776c-.661251-1.0653493-1.588826-1.598016-2.782752-1.598016-.569411 0-1.033198.1423506-1.391376.427056s-.537264.6658376-.537264 1.143408c0 .4959385.243374.9092144.730128 1.23984.486755.3306257 1.069933.6153268 1.749552.854112.67962.2387852 1.363821.5097105 2.052624.812784.688804.3030736 1.276574.7714529 1.763328 1.4051521.486755.6336991.730128 1.4189233.730128 2.355696 0 1.3225026-.491339 2.387836-1.474032 3.196032-.982693.8081961-2.227112 1.212288-3.733296 1.212288-2.387852 0-4.114426-.9551264-5.179776-2.865408z"/><path d="m278.068564 20.6260001v-7.8936481h-2.259264v-1.749552h6.447168v1.749552h-2.245488v7.8936481zm8.068144-9.6432001 2.7552 6.5711521 2.768976-6.5711521h2.507232v9.6432001h-1.85976v-6.8880001l-2.507232 6.0752161h-1.804656l-2.507232-6.0752161v6.8880001h-1.85976v-9.6432001z"/></g></g></g></svg>