<svg version="1.1" id="Livello_1" xmlns="http://www.w3.org/2000/svg" xmlns:xlink="http://www.w3.org/1999/xlink" x="0px" y="0px" viewBox="0 0 220 60" style="enable-background:new 0 0 220 60;" xml:space="preserve" width="200px" height="60px">
<style type="text/css">
	.st0{fill:#FFFFFF;}
</style>
<g>
	<path class="st0" d="M43.7,0L15.77,9.96l4.26,36.93L43.7,60l23.67-13.11l4.26-36.93L43.7,0z M50.19,42.58L43.7,26.92l-6.49,15.66
		h-9.81l11.39-27.5h9.81l11.39,27.5H50.19z M62.16,24.49h-5.43v-9.41h5.43l2.72,4.7L62.16,24.49z"></path>
	<g>
		<path class="st0" d="M89.72,35.46v-1.18c-0.95,1.07-2.02,1.46-3.15,1.46c-2.71,0-4.94-2.04-4.94-5.89c0-3.71,2.18-5.86,4.94-5.86
			c1.14,0,2.25,0.39,3.13,1.46v-1.18h4.19v11.19H89.72z M89.72,31.29v-2.85c-0.39-0.49-1.18-0.74-1.74-0.74
			c-1.14,0-2.09,0.76-2.09,2.16c0,1.39,0.95,2.2,2.09,2.2C88.54,32.05,89.32,31.77,89.72,31.29z"></path>
		<path class="st0" d="M103.79,35.46v-6.19c0-1.16-0.63-1.6-1.62-1.6c-0.95,0-1.44,0.49-1.78,0.88v6.91h-4.17V24.26h4.17v1.27
			c0.65-0.74,1.88-1.55,3.85-1.55c2.6,0,3.73,1.58,3.73,3.52v7.95H103.79z"></path>
		<path class="st0" d="M109.88,38.33l1.76-2.97c0.86,0.86,2.13,1.23,3.34,1.23c0.97,0,2.6-0.37,2.6-2.34v-0.6
			c-0.95,1.09-1.99,1.51-3.15,1.51c-2.69,0-4.91-1.76-4.91-5.58c0-3.73,2.16-5.59,4.91-5.59c1.16,0,2.25,0.39,3.15,1.46v-1.18h4.17
			v9.99c0,4.84-3.99,5.75-6.77,5.75C113.06,40,111.34,39.49,109.88,38.33z M117.58,30.75v-2.36c-0.39-0.46-1.18-0.72-1.72-0.72
			c-1.14,0-2.09,0.53-2.09,1.9c0,1.37,0.95,1.9,2.09,1.9C116.39,31.47,117.18,31.22,117.58,30.75z"></path>
		<path class="st0" d="M131.62,35.46v-1.25c-0.65,0.72-1.88,1.53-3.85,1.53c-2.6,0-3.71-1.55-3.71-3.48v-8h4.17v6.21
			c0,1.14,0.6,1.58,1.62,1.58c0.93,0,1.41-0.49,1.76-0.88v-6.91h4.17v11.19H131.62z"></path>
		<path class="st0" d="M138.11,35.46V20h4.17v15.46H138.11z"></path>
		<path class="st0" d="M151.92,35.46v-1.18c-0.95,1.07-2.02,1.46-3.15,1.46c-2.71,0-4.94-2.04-4.94-5.89c0-3.71,2.18-5.86,4.94-5.86
			c1.14,0,2.25,0.39,3.13,1.46v-1.18h4.19v11.19H151.92z M151.92,31.29v-2.85c-0.39-0.49-1.18-0.74-1.74-0.74
			c-1.14,0-2.09,0.76-2.09,2.16c0,1.39,0.95,2.2,2.09,2.2C150.74,32.05,151.53,31.77,151.92,31.29z"></path>
		<path class="st0" d="M158.41,35.46V24.26h4.17v1.23c0.7-0.81,2.16-1.55,3.43-1.55v3.99c-0.21-0.07-0.56-0.12-0.95-0.12
			c-0.88,0-2.02,0.23-2.48,0.79v6.86H158.41z"></path>
		<path class="st0" d="M176.14,35.46v-1.67c-0.83,1.14-2.2,1.95-3.78,1.95c-2.92,0-4.98-2.22-4.98-5.86c0-3.59,2.06-5.89,4.98-5.89
			c1.51,0,2.87,0.74,3.78,1.97V20h1.74v15.46H176.14z M176.14,32.4v-5.05c-0.6-0.97-1.97-1.81-3.34-1.81
			c-2.27,0-3.62,1.85-3.62,4.33s1.34,4.31,3.62,4.31C174.17,34.18,175.54,33.37,176.14,32.4z"></path>
		<path class="st0" d="M189.47,35.46v-1.67c-0.83,1.14-2.2,1.95-3.78,1.95c-2.92,0-4.98-2.22-4.98-5.86c0-3.59,2.06-5.89,4.98-5.89
			c1.51,0,2.87,0.74,3.78,1.97v-1.69h1.74v11.19H189.47z M189.47,32.4v-5.05c-0.6-0.97-1.97-1.81-3.34-1.81
			c-2.27,0-3.62,1.85-3.62,4.33s1.34,4.31,3.62,4.31C187.5,34.18,188.86,33.37,189.47,32.4z"></path>
		<path class="st0" d="M194.33,38.26c0.25,0.12,0.67,0.19,0.95,0.19c0.76,0,1.27-0.25,1.67-1.18l0.74-1.69l-4.68-11.31h1.9
			l3.71,9.18l3.73-9.18h1.88l-5.61,13.46c-0.67,1.62-1.81,2.25-3.29,2.27c-0.37,0-0.95-0.07-1.25-0.16L194.33,38.26z"></path>
	</g>
</g>
</svg>
