<svg width="305" height="325" xmlns="http://www.w3.org/2000/svg">

 <g>
  <title>Layer 1</title>
  <g transform="translate(13 0)" id="svg_33">

   <title id="svg_19">nggirls</title>
   <path id="svg_28" fill="#fff" d="m185.65442,108.5598l-7.82,0l0,7.63l-7.75,0l0,7.68l-7.84,0l0,7.57l-7.89,0l0,7.59l-7.19,0l0,7.44l-8.68,0l0,-7.34l-7.91,0l0,-7.54l-7.84,0l0,-7.64l-7.92,0c0,-2.18 -0.06,-4.14 0,-6.09c0.05,-1.25 -0.39,-1.7 -1.64,-1.65c-2,0.08 -3.93,0 -6.11,0l0,-7.65l-7.8,0l0,-7.53l-7.88,0l0,-15.32l-7.84,0l0,-31l7.74,0l0,-7.66l7.87,0l0,-7.51l31.7,0l0,7.38l7.89,0l0,7.59l7.15,0l0,-7.46l7.89,0l0,-7.49l31.77,0l0,7.47l7.88,0l0,7.67l7.78,0l0,30.88l-7.73,0l0,15.33l-7.83,0l0,7.63l0,0.02zm-78.33,-45.72l-7.57,0l0,22.52l7.63,0l0,15.19l7.86,0l0,7.64l7.9,0l0,7.77l7.9,0l0,7.58l7.89,0l0,7.33l7.11,0l0,-7.43l7.83,0l0,-7.65l8,0l0,-7.7l7.78,0l0,-7.64l7.86,0l0,-15.2l7.46,0l0,-22.47l-7.51,0l0,-7.59l-23.2,0l0,7.66l-7.47,0l0,7.51l-8.83,0l0,-7.58l-7.48,0l0,-7.54l-23.16,0l0,7.63l0,-0.03z" class="cls-2"/>
   <path id="svg_29" fill="#ca1029" d="m146.08442,130.9298l0,-7.43l7.83,0l0,-7.65l8,0l0,-7.7l7.83,0l0,-7.64l7.86,0l0,-15.2l7.46,0l0,-22.51l-7.51,0l0,-7.59l-23.26,0l0,7.66l-7.47,0l0,7.49l-4.5,0l0,60.58l3.76,0l0,-0.01z" class="cls-3"/>
   <path id="svg_30" fill="#e5052a" d="m142.33442,70.3598l-4.33,0l0,-7.58l-7.48,0l0,-7.54l-23.17,0l0,7.63l-7.57,0l0,22.55l7.63,0l0,15.19l7.86,0l0,7.64l7.9,0l0,7.77l7.9,0l0,7.58l7.89,0l0,7.33l3.36,0" class="cls-4"/>
   <path id="svg_31" fill="#ca1029" d="m142.77442,3.2298l13.94,5.13q32.28,11.85 64.56,23.67c1.41,0.51 1.87,1 1.67,2.66c-2.12,17.63 -4.13,35.27 -6.16,52.9c-1.85,16.09 -3.74,32.18 -5.44,48.29c-0.34,3.2 -1.46,5.13 -4.44,6.71q-30.87,16.43 -61.51,33.28a5.65,5.65 0 0 1 -6.12,0c-20.2,-11 -40.48,-21.9 -60.65,-33c-6.34,-3.48 -4.8,-1.76 -5.76,-9.1c-1.21,-9.52 -2.15,-19.1 -3.21,-28.66c-0.89,-8.07 -1.75,-16.15 -2.65,-24.22s-1.84,-15.9 -2.73,-23.86c-0.79,-7.06 -1.53,-14.13 -2.3,-21.2a15.57,15.57 0 0 0 -0.38,-1.71l0,-1.44a0.47,0.47 0 0 0 0.18,0l61,-22.42q9.63,-3.54 19.28,-7l0.72,0l0,-0.03zm42.88,105.33l0,-7.63l7.88,0l0,-15.34l7.73,0l0,-30.88l-7.78,0l0,-7.67l-7.88,0l0,-7.48l-31.78,0l0,7.55l-7.89,0l0,7.46l-7.15,0l0,-7.59l-7.89,0l0,-7.38l-31.7,0l0,7.51l-7.87,0l0,7.66l-7.74,0l0,31l7.84,0l0,15.32l7.88,0l0,7.53l7.8,0l0,7.66c2.18,0 4.15,0.06 6.11,0c1.25,0 1.69,0.4 1.64,1.65c-0.08,2 0,3.91 0,6.09l7.92,0l0,7.64l7.84,0l0,7.54l7.91,0l0,7.34l8.68,0l0,-7.44l7.19,0l0,-7.59l7.89,0l0,-7.57l7.84,0l0,-7.68l7.75,0l0,-7.7l7.78,0z" class="cls-3"/>
   <path id="svg_32" fill="#e5052a" d="m138.77442,54.5698l0,-7.46l-7.89,0l0,-7.55l-31.77,0l0,7.47l-7.88,0l0,7.67l-7.78,0l0,30.88l7.73,0l0,15.33l7.88,0l0,7.63l7.82,0l0,7.63l7.77,0l0,7.68l7.84,0l0,7.57l7.89,0l0,7.59l7.19,0l0,7.44l4.87,0l0,30.27a6.33,6.33 0 0 1 -3.11,-0.9q-30.68,-16.75 -61.54,-33.26c-3,-1.58 -4.1,-3.51 -4.44,-6.71c-1.7,-16.11 -3.59,-32.2 -5.44,-48.29c-2,-17.64 -4,-35.28 -6.16,-52.9c-0.19,-1.62 0.27,-2.14 1.67,-2.66q32.3,-11.79 64.56,-23.67l13.94,-5.09l0.48,0l0,51.34l-3.64,0l0.01,-0.01z" class="cls-4"/>
  </g>
  <g>

   <title>nggirls</title>
   <path fill="#d20002" transform="translate(-80.95 -286.87)" d="m254.21442,485.0898c-3.34,0 -6.39,-0.13 -9.42,0c-5.72,0.3 -10.77,2.57 -15.47,5.67c-9,5.91 -15.47,14 -20.63,23.28a75,75 0 0 0 -9.83,37a30.1,30.1 0 0 0 0.42,4.82c0.84,5.15 4.8,7.74 10.11,6.77a34.16,34.16 0 0 0 12,-5a65,65 0 0 0 20.91,-20.6c0.66,-1.05 1.18,-2.2 2,-3.69c-1.66,-0.16 -3,-0.36 -4.42,-0.41c-4.19,-0.16 -8.38,-0.41 -12.56,-0.33c-1.89,0 -2.51,-0.88 -3,-2.31a2.69,2.69 0 0 1 1.11,-3.6a16.32,16.32 0 0 1 5.83,-2c5,-0.38 10,-0.3 15,-0.52a19.91,19.91 0 0 0 4.52,-0.84c2.69,-0.77 5.32,-1.74 8,-2.52a3.13,3.13 0 0 1 3.82,1.42c0.83,1.34 0.33,2.65 -0.54,3.83a3.93,3.93 0 0 1 -1,1.06c-4.64,2.83 -5.77,7.54 -6.59,12.38c-1.91,11.23 -1.75,22.52 -0.85,33.82c0.26,3.27 0.73,6.54 1.19,9.79c0.21,1.47 -0.09,2.4 -1.7,2.72a18.66,18.66 0 0 0 -2.36,0.83c-2.37,0.81 -3.08,0.67 -3.61,-1.81a133.23,133.23 0 0 1 -2.25,-13.93c-0.59,-5.75 -0.79,-11.55 -1.18,-17.8c-1.2,1 -2.21,1.67 -3.07,2.51a77.92,77.92 0 0 1 -17.91,13.08a37,37 0 0 1 -12.33,4.16c-11.06,1.58 -18.07,-4.66 -20.8,-14.36c-1.66,-5.87 -1.21,-11.9 -0.26,-17.82a98.35,98.35 0 0 1 20.22,-46c5.81,-7.37 12.63,-13.56 21.49,-17.12a32.92,32.92 0 0 1 21.44,-0.92c1.39,0.38 2.18,1.11 2.06,2.66c-0.14,1.86 -0.22,3.77 -0.34,5.78z" class="cls-1"/>
   <path fill="#d20002" d="m94.52442,244.3598c-0.59,1.2 -1.2,2.39 -1.77,3.59c-2.82,6 -5.34,12.16 -8.54,18a79.33,79.33 0 0 1 -8.32,11.63a10.43,10.43 0 0 1 -9,4a7.55,7.55 0 0 1 -6.56,-3.78a31.82,31.82 0 0 1 -3.68,-8.74c-0.49,-2.46 0.15,-5.23 0.68,-7.78a78.2,78.2 0 0 1 17.08,-35.6c3.81,-4.44 8.4,-7.81 14.24,-9.12a15,15 0 0 1 12.76,2.56a4.58,4.58 0 0 1 1.71,2.9c0.58,6.73 1.06,13.48 1.38,20.23c0.51,10.76 1,21.52 1.24,32.28c0.1,5.12 0.17,10.4 -0.92,15.35c-2.24,10.25 -7,19.29 -15.31,26.12a29.08,29.08 0 0 1 -23.11,6.55c-2.6,-0.34 -4.16,-2 -4.19,-4.32a4.45,4.45 0 0 1 4.18,-4.55c4.58,-0.6 9.07,-1.43 13.16,-3.77c7.46,-4.27 11.7,-10.87 14,-19c2.61,-9.32 2.82,-18.87 2.54,-28.44c-0.18,-6 -0.67,-12 -1,-18l-0.57,-0.11zm-29.1,23.65a8.81,8.81 0 0 0 1.75,2.6c0.3,0.25 1.72,-0.85 2.61,-1.35a1.62,1.62 0 0 0 0.51,-0.5c2.1,-3.11 4.56,-6 6.22,-9.38c5.09,-10.25 9.89,-20.64 14.74,-31a1.52,1.52 0 0 0 -2.13,-2.16a27.55,27.55 0 0 0 -5,3.1c-5.58,4.65 -9.3,10.69 -12.41,17.14a65,65 0 0 0 -6.29,21.59l0,-0.04z" class="cls-1"/>
   <path fill="#d20002" transform="translate(-80.95 -286.87)" d="m92.02442,536.3698c0.46,-1.69 0.88,-3.39 1.38,-5.07c1.78,-6.08 3.77,-12.08 7.47,-17.34a18.15,18.15 0 0 1 12.39,-8a10.18,10.18 0 0 1 10.13,4c3.15,3.84 4.62,8.47 5.83,13.18c2.1,8.2 2.92,16.59 3.6,25c0.29,3.56 0.75,7.12 0.79,10.69c0,4.36 -0.27,8.72 -0.44,13.08a32.83,32.83 0 0 1 -0.26,3.39a4.84,4.84 0 0 1 -4.91,4c-2.41,-0.12 -4,-1.86 -4.08,-4.56c-0.15,-6.82 -0.18,-13.64 -0.4,-20.46c-0.31,-9.67 -0.68,-19.36 -3.26,-28.76a30.49,30.49 0 0 0 -3.09,-7.37c-1.92,-3.25 -4.3,-3.31 -6.7,-0.45c-3.13,3.72 -5,8.13 -6.66,12.63c-5,14 -8.24,28.45 -10.77,43.07c-0.71,4.13 -4.91,6.42 -8.56,4.29a5.52,5.52 0 0 1 -2.23,-5.22q0,-30.35 0.06,-60.69q0,-1.08 0.06,-2.15c0.14,-2.53 0.83,-3.46 3,-4.05s4.9,0.29 5.84,1.79a2.64,2.64 0 0 1 0.29,1.34c0,8.91 -0.06,17.82 -0.07,26.73a3.67,3.67 0 0 0 0.28,1l0.31,0l0,-0.07z" class="cls-1"/>
   <path fill="#d20002" transform="translate(-80.95 -286.87)" d="m370.09442,513.0898c-6.93,-0.65 -12.49,2 -17.15,7c-3.17,3.36 -4.33,7.48 -4.61,11.94a1.59,1.59 0 0 0 0.35,0.95c3.05,4 7.2,5.27 12,4.61c3.54,-0.48 7.08,-1.1 10.63,-1.43a22.13,22.13 0 0 1 5.88,0.25c4,0.72 6.43,4.07 7,8.47a16.37,16.37 0 0 1 -5.59,14.75c-8.95,8.27 -19.31,13.56 -31.54,14.83c-4.42,0.46 -6.74,-1 -7.9,-4.7a4.22,4.22 0 0 1 1.44,-4.83c1.38,-1.14 2.77,-1.84 4.7,-0.72c2.83,1.64 6,1.14 8.9,0.31a37.17,37.17 0 0 0 19.18,-12.29a10.52,10.52 0 0 0 1.92,-3.78a3.44,3.44 0 0 0 -4.06,-4.39c-4.67,0.7 -9.32,1.59 -14,1.9a29.77,29.77 0 0 1 -9,-0.92c-5.34,-1.34 -8.08,-5.41 -8.48,-10.89c-1.05,-14.62 10.7,-26.1 22.83,-29.52a33.08,33.08 0 0 1 11.72,-1c4.15,0.34 5.95,3.38 4.27,7a3.71,3.71 0 0 1 -3.42,2.47c-1.72,0.02 -3.4,-0.01 -5.07,-0.01z" class="cls-1"/>
   <path fill="#d20002" transform="translate(-80.95 -286.87)" d="m288.30442,521.2298c2.9,-3.17 5.45,-6.53 8.56,-9.23c6.66,-5.81 14.64,-7.48 23.28,-6.32a4.45,4.45 0 0 1 4,4.9a4.35,4.35 0 0 1 -4.24,4.43a56.87,56.87 0 0 0 -8.14,1.18c-11.78,3.12 -18.53,11.13 -20.44,22.86c-1.19,7.28 -1.24,14.75 -1.71,22.14c-0.2,3.16 -0.15,6.34 -0.29,9.51c-0.11,2.6 -1.27,3.68 -3.94,3.88c-2.94,0.22 -4.94,-0.93 -5.32,-3.3a48,48 0 0 1 -0.63,-6.6q-0.46,-21 -0.81,-42c-0.08,-5.2 0,-10.4 0,-15.59a3.74,3.74 0 0 1 3,-3.77c1.79,-0.57 3.66,-0.48 5,1a4.72,4.72 0 0 1 0.94,2.77c0.21,3.58 0.23,7.17 0.39,10.76c-0.01,1.21 0.23,2.38 0.35,3.38z" class="cls-1"/>
   <path fill="#d20002" transform="translate(-80.95 -286.87)" d="m326.77442,525.8298c0,-15 0,-29.91 0,-44.87a3.78,3.78 0 0 1 2.68,-4.07c3,-1.14 5.07,0 5.16,3.2c0.2,7.11 0.29,14.23 0.39,21.34c0.13,8.67 0.3,17.35 0.34,26c0.06,13.34 0,26.68 0,40c0,1.55 -0.15,3.1 -0.31,4.65c-0.21,2.07 -1.53,3.1 -3.83,3.07s-4,-1.45 -4.08,-3.43c-0.15,-3.71 -0.3,-7.41 -0.31,-11.12c0,-11.61 0,-23.21 0,-34.82l0,0l-0.04,0.05z" class="cls-1"/>
   <path fill="#d20002" transform="translate(-80.95 -286.87)" d="m266.35442,537.7398c-0.26,-10.88 -0.49,-21.77 -0.82,-32.65c-0.05,-1.65 0.5,-2.45 2.06,-2.66a21.22,21.22 0 0 1 3,-0.35c2.59,0 3.61,0.9 3.82,3.45c0.27,3.34 0.43,6.69 0.51,10q0.71,27 1.36,54c0.09,3.71 -1.33,5.58 -4.36,5.76a4.44,4.44 0 0 1 -4.81,-4.4q-0.42,-16.59 -0.83,-33.19l0.06,0l0.01,0.04z" class="cls-1"/>
   <path fill="#d20002" transform="translate(-80.95 -286.87)" d="m270.73442,486.2298c0,3.18 -1.46,4.62 -4.59,4.59s-5.07,-2.6 -5,-6.19c0,-2.7 1.73,-4.1 5,-4.11c3.01,0.01 4.62,1.98 4.59,5.71z" class="cls-1"/>
  </g>
 </g>
</svg>